<svg width="16" height="16" viewBox="0 0 256 256" xmlns="http://www.w3.org/2000/svg">
  <path d="M 69.41 159.23 L 69.41 160.46 L 69.82 160.87 L 69.82 161.28 L 71.04 162.09 L 126.98 162.09 L 128.20 160.87 L 128.20 158.01 L 127.80 157.60 L 127.80 157.19 L 126.57 155.97 L 126.16 155.97 L 125.35 155.15 L 124.94 155.15 L 124.12 154.33 L 123.71 154.33 L 122.08 152.70 L 121.67 152.70 L 116.36 147.39 L 116.36 146.99 L 114.73 144.94 L 114.73 144.54 L 114.32 144.13 L 114.32 142.90 L 113.91 142.49 L 113.91 138.82 L 114.32 138.41 L 114.32 137.19 L 114.73 136.78 L 114.73 136.37 L 115.96 135.15 L 115.96 134.74 L 117.18 133.51 L 117.59 133.51 L 118.81 132.29 L 119.22 132.29 L 120.04 131.47 L 120.45 131.47 L 120.85 131.06 L 121.26 131.06 L 122.49 130.25 L 123.30 130.25 L 123.71 129.84 L 124.12 129.84 L 124.53 129.43 L 125.35 129.43 L 126.57 128.61 L 127.80 128.61 L 128.20 128.20 L 129.02 128.20 L 129.43 127.80 L 130.25 127.80 L 130.65 127.39 L 131.88 127.39 L 132.29 126.98 L 133.51 126.98 L 133.92 126.57 L 134.74 126.57 L 135.15 126.16 L 136.37 126.16 L 136.78 125.75 L 138.00 125.75 L 138.41 125.35 L 139.64 125.35 L 140.04 124.94 L 141.68 124.94 L 142.09 124.53 L 142.90 124.53 L 143.31 124.94 L 140.45 127.80 L 140.04 127.80 L 138.00 129.84 L 137.59 129.84 L 134.74 132.70 L 134.33 132.70 L 131.47 135.55 L 131.47 135.96 L 130.65 136.78 L 130.65 137.59 L 130.25 138.00 L 130.25 140.86 L 130.65 141.27 L 131.06 142.49 L 131.88 143.31 L 131.88 143.72 L 132.29 143.72 L 133.51 144.94 L 133.92 144.94 L 134.74 145.76 L 135.15 145.76 L 135.55 146.17 L 135.96 146.17 L 136.37 146.58 L 136.78 146.58 L 137.19 146.99 L 137.59 146.99 L 138.00 147.39 L 138.41 147.39 L 138.82 147.80 L 139.23 147.80 L 139.64 148.21 L 140.04 148.21 L 141.27 149.03 L 142.09 149.03 L 142.49 149.44 L 142.90 149.44 L 143.31 149.84 L 143.72 149.84 L 144.94 150.66 L 145.76 150.66 L 146.99 151.48 L 147.80 151.48 L 148.21 151.89 L 149.03 151.89 L 150.25 152.70 L 151.07 152.70 L 151.48 153.11 L 152.29 153.11 L 152.70 153.52 L 153.52 153.52 L 153.93 153.93 L 154.74 153.93 L 155.15 154.33 L 155.97 154.33 L 156.38 154.74 L 156.78 154.74 L 157.19 155.15 L 158.01 155.15 L 158.42 155.56 L 159.64 155.56 L 160.05 155.97 L 160.87 155.97 L 161.28 156.38 L 162.09 156.38 L 162.50 156.78 L 163.32 156.78 L 163.73 157.19 L 164.54 157.19 L 164.95 157.60 L 165.77 157.60 L 166.18 158.01 L 167.40 158.01 L 167.81 158.42 L 168.63 158.42 L 169.03 158.83 L 169.85 158.83 L 170.26 159.23 L 171.48 159.23 L 171.89 159.64 L 172.71 159.64 L 173.12 160.05 L 174.34 160.05 L 174.75 160.46 L 175.57 160.46 L 175.97 160.87 L 177.20 160.87 L 177.61 161.28 L 178.83 161.28 L 179.24 161.68 L 180.47 161.68 L 180.87 162.09 L 187.81 162.09 L 189.04 160.87 L 189.04 160.05 L 189.45 159.64 L 189.04 159.23 L 189.04 158.42 L 188.22 157.60 L 188.22 157.19 L 187.41 156.38 L 187.41 155.97 L 186.18 154.74 L 186.18 154.33 L 185.37 153.52 L 185.37 153.11 L 184.14 151.89 L 184.14 151.48 L 183.32 150.66 L 183.32 150.25 L 182.51 149.44 L 182.51 149.03 L 181.28 147.80 L 181.28 147.39 L 180.47 146.58 L 180.47 146.17 L 179.24 144.94 L 179.24 144.54 L 178.42 143.72 L 178.42 143.31 L 177.20 142.09 L 177.20 141.68 L 176.38 140.86 L 176.38 140.45 L 175.16 139.23 L 175.16 138.82 L 174.34 138.00 L 174.34 137.59 L 173.12 136.37 L 173.12 135.96 L 171.89 134.74 L 171.89 134.33 L 171.07 133.51 L 171.07 133.10 L 170.26 132.29 L 170.26 131.88 L 169.03 130.65 L 169.03 130.25 L 167.81 129.02 L 167.81 128.61 L 166.99 127.80 L 166.99 127.39 L 166.18 126.57 L 166.18 126.16 L 164.95 124.94 L 164.95 124.53 L 163.73 123.30 L 163.73 122.90 L 162.91 122.08 L 162.91 121.67 L 161.68 120.45 L 161.68 120.04 L 160.87 119.22 L 160.87 118.81 L 160.05 118.00 L 160.05 117.59 L 158.83 116.36 L 158.83 115.96 L 157.60 114.73 L 157.60 114.32 L 156.78 113.51 L 156.78 113.10 L 155.56 111.87 L 155.56 111.46 L 154.74 110.65 L 154.74 110.24 L 153.52 109.01 L 153.52 108.61 L 152.70 107.79 L 152.70 107.38 L 151.48 106.16 L 151.48 105.75 L 150.66 104.93 L 150.66 104.52 L 149.44 103.30 L 149.44 102.89 L 148.62 102.07 L 148.62 101.67 L 147.39 100.44 L 147.39 100.03 L 146.58 99.22 L 146.58 98.81 L 145.35 97.58 L 145.35 97.17 L 144.54 96.36 L 144.54 95.95 L 143.31 94.72 L 143.31 94.32 L 142.49 93.50 L 142.49 93.09 L 141.27 91.87 L 141.27 91.46 L 140.45 90.64 L 140.45 90.23 L 139.23 89.01 L 139.23 88.60 L 138.41 87.78 L 138.41 87.37 L 137.19 86.15 L 137.19 85.74 L 136.37 84.93 L 136.37 84.52 L 135.15 83.29 L 135.15 82.88 L 133.92 81.66 L 133.92 81.25 L 132.29 79.62 L 131.88 79.62 L 130.65 78.80 L 128.20 78.80 L 127.80 79.21 L 126.98 79.21 L 126.57 79.62 L 126.16 79.62 L 124.94 80.84 L 124.94 81.25 L 124.12 82.07 L 124.12 82.48 L 123.30 83.29 L 123.30 83.70 L 122.08 84.93 L 122.08 85.33 L 121.26 86.15 L 121.26 86.56 L 120.04 87.78 L 120.04 88.19 L 119.22 89.01 L 119.22 89.42 L 118.00 90.64 L 118.00 91.05 L 117.18 91.87 L 117.18 92.27 L 115.96 93.50 L 115.96 93.91 L 115.14 94.72 L 115.14 95.13 L 113.91 96.36 L 113.91 96.77 L 113.10 97.58 L 113.10 97.99 L 111.87 99.22 L 111.87 99.62 L 111.06 100.44 L 111.06 100.85 L 109.83 102.07 L 109.83 102.48 L 108.61 103.71 L 108.61 104.11 L 107.79 104.93 L 107.79 105.34 L 106.56 106.56 L 106.56 106.97 L 105.75 107.79 L 105.75 108.20 L 104.52 109.42 L 104.52 109.83 L 103.71 110.65 L 103.71 111.06 L 102.48 112.28 L 102.48 112.69 L 101.67 113.51 L 101.67 113.91 L 100.44 115.14 L 100.44 115.55 L 99.62 116.36 L 99.62 116.77 L 98.40 118.00 L 98.40 118.41 L 97.58 119.22 L 97.58 119.63 L 96.36 120.85 L 96.36 121.26 L 95.54 122.08 L 95.54 122.49 L 94.72 123.30 L 94.72 123.71 L 93.50 124.94 L 93.50 125.35 L 92.27 126.57 L 92.27 126.98 L 91.46 127.80 L 91.46 128.20 L 90.64 129.02 L 90.64 129.43 L 89.42 130.65 L 89.42 131.06 L 88.60 131.88 L 88.60 132.29 L 87.37 133.51 L 87.37 133.92 L 86.56 134.74 L 86.56 135.15 L 85.33 136.37 L 85.33 136.78 L 84.52 137.59 L 84.52 138.00 L 83.29 139.23 L 83.29 139.64 L 82.48 140.45 L 82.48 140.86 L 81.25 142.09 L 81.25 142.49 L 80.43 143.31 L 80.43 143.72 L 79.21 144.94 L 79.21 145.35 L 78.39 146.17 L 78.39 146.58 L 77.17 147.80 L 77.17 148.21 L 76.35 149.03 L 76.35 149.44 L 75.53 150.25 L 75.53 150.66 L 74.31 151.89 L 74.31 152.29 L 73.08 153.52 L 73.08 153.93 L 72.27 154.74 L 72.27 155.15 L 71.04 156.38 L 71.04 156.78 L 70.23 157.60 L 70.23 158.01 Z" fill="#FFFFFF"/>
</svg>
